{
	"asset":{
		"generator":"Khronos glTF Blender I/O v3.6.27",
		"version":"2.0"
	},
	"scene":0,
	"scenes":[
		{
			"name":"Scene",
			"nodes":[
				0,
				1,
				2,
				3,
				4,
				5,
				6
			]
		}
	],
	"nodes":[
		{
			"mesh":0,
			"name":"Sphere",
			"scale":[
				0.9932237267494202,
				0.9932237267494202,
				0.9932237267494202
			]
		},
		{
			"mesh":1,
			"name":"Icosphere",
			"scale":[
				0.9939377903938293,
				0.9939377903938293,
				0.9939377903938293
			]
		},
		{
			"mesh":2,
			"name":"Tree 1"
		},
		{
			"mesh":3,
			"name":"Tree 4"
		},
		{
			"mesh":4,
			"name":"Tree 2"
		},
		{
			"mesh":5,
			"name":"Tree 3"
		},
		{
			"mesh":6,
			"name":"Tree 5"
		}
	],
	"materials":[
		{
			"doubleSided":true,
			"name":"Material.001",
			"pbrMetallicRoughness":{
				"baseColorFactor":[
					0.1522655189037323,
					0.7123496532440186,
					0,
					1
				],
				"metallicFactor":0,
				"roughnessFactor":0.5
			}
		},
		{
			"doubleSided":true,
			"name":"Material.003",
			"pbrMetallicRoughness":{
				"baseColorFactor":[
					0.9638792276382446,
					0.9638792276382446,
					0.9638792276382446,
					1
				],
				"metallicFactor":0,
				"roughnessFactor":0.5
			}
		},
		{
			"doubleSided":true,
			"name":"Tree.001",
			"pbrMetallicRoughness":{
				"baseColorFactor":[
					0.04156691953539848,
					0.4670785665512085,
					0.10362593084573746,
					1
				],
				"metallicFactor":0
			}
		},
		{
			"doubleSided":true,
			"name":"Trunk.001",
			"pbrMetallicRoughness":{
				"baseColorFactor":[
					0.1568453460931778,
					0.04940622299909592,
					0.0028585775289684534,
					1
				],
				"metallicFactor":0
			}
		},
		{
			"doubleSided":true,
			"name":"Material.002",
			"pbrMetallicRoughness":{
				"baseColorFactor":[
					0.0829489529132843,
					0.6025273203849792,
					0.8000000715255737,
					1
				],
				"metallicFactor":0,
				"roughnessFactor":0.5
			}
		}
	],
	"meshes":[
		{
			"name":"Sphere",
			"primitives":[
				{
					"attributes":{
						"COLOR_0":0,
						"POSITION":1,
						"NORMAL":2,
						"TEXCOORD_0":3
					},
					"indices":4,
					"material":0
				},
				{
					"attributes":{
						"COLOR_0":5,
						"POSITION":6,
						"NORMAL":7,
						"TEXCOORD_0":8
					},
					"indices":9,
					"material":1
				},
				{
					"attributes":{
						"COLOR_0":10,
						"POSITION":11,
						"NORMAL":12,
						"TEXCOORD_0":13
					},
					"indices":14,
					"material":2
				},
				{
					"attributes":{
						"COLOR_0":15,
						"POSITION":16,
						"NORMAL":17,
						"TEXCOORD_0":18
					},
					"indices":19,
					"material":3
				}
			]
		},
		{
			"name":"Icosphere",
			"primitives":[
				{
					"attributes":{
						"POSITION":20,
						"NORMAL":21,
						"TEXCOORD_0":22
					},
					"indices":23,
					"material":4
				}
			]
		},
		{
			"name":"Cube.007",
			"primitives":[
				{
					"attributes":{
						"POSITION":24,
						"NORMAL":25,
						"TEXCOORD_0":26
					},
					"indices":27,
					"material":2
				},
				{
					"attributes":{
						"POSITION":28,
						"NORMAL":29,
						"TEXCOORD_0":30
					},
					"indices":31,
					"material":3
				}
			]
		},
		{
			"name":"Cube.004",
			"primitives":[
				{
					"attributes":{
						"POSITION":32,
						"NORMAL":33,
						"TEXCOORD_0":34
					},
					"indices":35,
					"material":2
				},
				{
					"attributes":{
						"POSITION":36,
						"NORMAL":37,
						"TEXCOORD_0":38
					},
					"indices":39,
					"material":3
				}
			]
		},
		{
			"name":"Cube.010",
			"primitives":[
				{
					"attributes":{
						"POSITION":40,
						"NORMAL":41,
						"TEXCOORD_0":42
					},
					"indices":43,
					"material":2
				},
				{
					"attributes":{
						"POSITION":44,
						"NORMAL":45,
						"TEXCOORD_0":46
					},
					"indices":47,
					"material":3
				}
			]
		},
		{
			"name":"Cube.009",
			"primitives":[
				{
					"attributes":{
						"POSITION":48,
						"NORMAL":49,
						"TEXCOORD_0":50
					},
					"indices":51,
					"material":2
				},
				{
					"attributes":{
						"POSITION":52,
						"NORMAL":53,
						"TEXCOORD_0":54
					},
					"indices":55,
					"material":3
				}
			]
		},
		{
			"name":"Cube.006",
			"primitives":[
				{
					"attributes":{
						"POSITION":56,
						"NORMAL":57,
						"TEXCOORD_0":58
					},
					"indices":59,
					"material":2
				},
				{
					"attributes":{
						"POSITION":60,
						"NORMAL":61,
						"TEXCOORD_0":62
					},
					"indices":63,
					"material":3
				}
			]
		}
	],
	"accessors":[
		{
			"bufferView":0,
			"componentType":5123,
			"count":40203,
			"normalized":true,
			"type":"VEC4"
		},
		{
			"bufferView":1,
			"componentType":5126,
			"count":40203,
			"max":[
				1.007378339767456,
				1.007114052772522,
				1.0090774297714233
			],
			"min":[
				-0.9814953207969666,
				-1.010420322418213,
				-1.003275990486145
			],
			"type":"VEC3"
		},
		{
			"bufferView":2,
			"componentType":5126,
			"count":40203,
			"type":"VEC3"
		},
		{
			"bufferView":3,
			"componentType":5126,
			"count":40203,
			"type":"VEC2"
		},
		{
			"bufferView":4,
			"componentType":5123,
			"count":42333,
			"type":"SCALAR"
		},
		{
			"bufferView":5,
			"componentType":5123,
			"count":4101,
			"normalized":true,
			"type":"VEC4"
		},
		{
			"bufferView":6,
			"componentType":5126,
			"count":4101,
			"max":[
				0.6483967304229736,
				-0.6959083080291748,
				0.446853905916214
			],
			"min":[
				-0.6610406041145325,
				-1.0137666463851929,
				-0.6525766253471375
			],
			"type":"VEC3"
		},
		{
			"bufferView":7,
			"componentType":5126,
			"count":4101,
			"type":"VEC3"
		},
		{
			"bufferView":8,
			"componentType":5126,
			"count":4101,
			"type":"VEC2"
		},
		{
			"bufferView":9,
			"componentType":5123,
			"count":4251,
			"type":"SCALAR"
		},
		{
			"bufferView":10,
			"componentType":5123,
			"count":682324,
			"normalized":true,
			"type":"VEC4"
		},
		{
			"bufferView":11,
			"componentType":5126,
			"count":682324,
			"max":[
				1.1347856521606445,
				0.9945873022079468,
				1.1116732358932495
			],
			"min":[
				-0.9024403095245361,
				-0.671135663986206,
				-1.0940148830413818
			],
			"type":"VEC3"
		},
		{
			"bufferView":12,
			"componentType":5126,
			"count":682324,
			"type":"VEC3"
		},
		{
			"bufferView":13,
			"componentType":5126,
			"count":682324,
			"type":"VEC2"
		},
		{
			"bufferView":14,
			"componentType":5125,
			"count":2577936,
			"type":"SCALAR"
		},
		{
			"bufferView":15,
			"componentType":5123,
			"count":162196,
			"normalized":true,
			"type":"VEC4"
		},
		{
			"bufferView":16,
			"componentType":5126,
			"count":162196,
			"max":[
				1.0337347984313965,
				0.9218513369560242,
				1.01036536693573
			],
			"min":[
				-0.8273781538009644,
				-0.6292284727096558,
				-0.9944059252738953
			],
			"type":"VEC3"
		},
		{
			"bufferView":17,
			"componentType":5126,
			"count":162196,
			"type":"VEC3"
		},
		{
			"bufferView":18,
			"componentType":5126,
			"count":162196,
			"type":"VEC2"
		},
		{
			"bufferView":19,
			"componentType":5125,
			"count":716208,
			"type":"SCALAR"
		},
		{
			"bufferView":20,
			"componentType":5126,
			"count":960,
			"max":[
				1,
				1,
				0.9999999403953552
			],
			"min":[
				-0.9999999403953552,
				-1,
				-0.9999999403953552
			],
			"type":"VEC3"
		},
		{
			"bufferView":21,
			"componentType":5126,
			"count":960,
			"type":"VEC3"
		},
		{
			"bufferView":22,
			"componentType":5126,
			"count":960,
			"type":"VEC2"
		},
		{
			"bufferView":23,
			"componentType":5123,
			"count":960,
			"type":"SCALAR"
		},
		{
			"bufferView":24,
			"componentType":5126,
			"count":926,
			"max":[
				0.03933355584740639,
				0.1711072325706482,
				0.038741640746593475
			],
			"min":[
				-0.039626650512218475,
				0.024923615157604218,
				-0.0377056747674942
			],
			"type":"VEC3"
		},
		{
			"bufferView":25,
			"componentType":5126,
			"count":926,
			"type":"VEC3"
		},
		{
			"bufferView":26,
			"componentType":5126,
			"count":926,
			"type":"VEC2"
		},
		{
			"bufferView":27,
			"componentType":5123,
			"count":3537,
			"type":"SCALAR"
		},
		{
			"bufferView":28,
			"componentType":5126,
			"count":215,
			"max":[
				0.009289846755564213,
				0.06001398339867592,
				0.009668627753853798
			],
			"min":[
				-0.009687118232250214,
				-0.00020470174786169082,
				-0.0094393165782094
			],
			"type":"VEC3"
		},
		{
			"bufferView":29,
			"componentType":5126,
			"count":215,
			"type":"VEC3"
		},
		{
			"bufferView":30,
			"componentType":5126,
			"count":215,
			"type":"VEC2"
		},
		{
			"bufferView":31,
			"componentType":5123,
			"count":948,
			"type":"SCALAR"
		},
		{
			"bufferView":32,
			"componentType":5126,
			"count":926,
			"max":[
				0.03318103775382042,
				0.15673932433128357,
				0.03513406589627266
			],
			"min":[
				-0.03223388269543648,
				0.02286629006266594,
				-0.03577308729290962
			],
			"type":"VEC3"
		},
		{
			"bufferView":33,
			"componentType":5126,
			"count":926,
			"type":"VEC3"
		},
		{
			"bufferView":34,
			"componentType":5126,
			"count":926,
			"type":"VEC2"
		},
		{
			"bufferView":35,
			"componentType":5123,
			"count":3519,
			"type":"SCALAR"
		},
		{
			"bufferView":36,
			"componentType":5126,
			"count":216,
			"max":[
				0.007941504940390587,
				0.05500320345163345,
				0.008371238596737385
			],
			"min":[
				-0.007603074889630079,
				-0.0001395214203512296,
				-0.008518497459590435
			],
			"type":"VEC3"
		},
		{
			"bufferView":37,
			"componentType":5126,
			"count":216,
			"type":"VEC3"
		},
		{
			"bufferView":38,
			"componentType":5126,
			"count":216,
			"type":"VEC2"
		},
		{
			"bufferView":39,
			"componentType":5123,
			"count":948,
			"type":"SCALAR"
		},
		{
			"bufferView":40,
			"componentType":5126,
			"count":922,
			"max":[
				0.037792306393384933,
				0.1441647708415985,
				0.041056763380765915
			],
			"min":[
				-0.038964930921792984,
				0.021196680143475533,
				-0.03871609643101692
			],
			"type":"VEC3"
		},
		{
			"bufferView":41,
			"componentType":5126,
			"count":922,
			"type":"VEC3"
		},
		{
			"bufferView":42,
			"componentType":5126,
			"count":922,
			"type":"VEC2"
		},
		{
			"bufferView":43,
			"componentType":5123,
			"count":3522,
			"type":"SCALAR"
		},
		{
			"bufferView":44,
			"componentType":5126,
			"count":215,
			"max":[
				0.009799212217330933,
				0.048865336924791336,
				0.009799213148653507
			],
			"min":[
				-0.009799212217330933,
				-5.384002179198433e-06,
				-0.009799212217330933
			],
			"type":"VEC3"
		},
		{
			"bufferView":45,
			"componentType":5126,
			"count":215,
			"type":"VEC3"
		},
		{
			"bufferView":46,
			"componentType":5126,
			"count":215,
			"type":"VEC2"
		},
		{
			"bufferView":47,
			"componentType":5123,
			"count":948,
			"type":"SCALAR"
		},
		{
			"bufferView":48,
			"componentType":5126,
			"count":928,
			"max":[
				0.03796324506402016,
				0.1409398913383484,
				0.03743402659893036
			],
			"min":[
				-0.038090553134679794,
				0.020838545635342598,
				-0.04210823029279709
			],
			"type":"VEC3"
		},
		{
			"bufferView":49,
			"componentType":5126,
			"count":928,
			"type":"VEC3"
		},
		{
			"bufferView":50,
			"componentType":5126,
			"count":928,
			"type":"VEC2"
		},
		{
			"bufferView":51,
			"componentType":5123,
			"count":3540,
			"type":"SCALAR"
		},
		{
			"bufferView":52,
			"componentType":5126,
			"count":215,
			"max":[
				0.009611250832676888,
				0.04747311770915985,
				0.009608601219952106
			],
			"min":[
				-0.009621648117899895,
				-0.00028504786314442754,
				-0.00962524302303791
			],
			"type":"VEC3"
		},
		{
			"bufferView":53,
			"componentType":5126,
			"count":215,
			"type":"VEC3"
		},
		{
			"bufferView":54,
			"componentType":5126,
			"count":215,
			"type":"VEC2"
		},
		{
			"bufferView":55,
			"componentType":5123,
			"count":948,
			"type":"SCALAR"
		},
		{
			"bufferView":56,
			"componentType":5126,
			"count":265,
			"max":[
				0.03527744114398956,
				0.1207573339343071,
				0.03527745604515076
			],
			"min":[
				-0.03527744859457016,
				0.018339572474360466,
				-0.035277437418699265
			],
			"type":"VEC3"
		},
		{
			"bufferView":57,
			"componentType":5126,
			"count":265,
			"type":"VEC3"
		},
		{
			"bufferView":58,
			"componentType":5126,
			"count":265,
			"type":"VEC2"
		},
		{
			"bufferView":59,
			"componentType":5123,
			"count":870,
			"type":"SCALAR"
		},
		{
			"bufferView":60,
			"componentType":5126,
			"count":82,
			"max":[
				0.007180271670222282,
				0.042304620146751404,
				0.007180271204560995
			],
			"min":[
				-0.007180271204560995,
				-0.0003602646756917238,
				-0.007180271670222282
			],
			"type":"VEC3"
		},
		{
			"bufferView":61,
			"componentType":5126,
			"count":82,
			"type":"VEC3"
		},
		{
			"bufferView":62,
			"componentType":5126,
			"count":82,
			"type":"VEC2"
		},
		{
			"bufferView":63,
			"componentType":5123,
			"count":372,
			"type":"SCALAR"
		}
	],
	"bufferViews":[
		{
			"buffer":0,
			"byteLength":321624,
			"byteOffset":0,
			"target":34962
		},
		{
			"buffer":0,
			"byteLength":482436,
			"byteOffset":321624,
			"target":34962
		},
		{
			"buffer":0,
			"byteLength":482436,
			"byteOffset":804060,
			"target":34962
		},
		{
			"buffer":0,
			"byteLength":321624,
			"byteOffset":1286496,
			"target":34962
		},
		{
			"buffer":0,
			"byteLength":84666,
			"byteOffset":1608120,
			"target":34963
		},
		{
			"buffer":0,
			"byteLength":32808,
			"byteOffset":1692788,
			"target":34962
		},
		{
			"buffer":0,
			"byteLength":49212,
			"byteOffset":1725596,
			"target":34962
		},
		{
			"buffer":0,
			"byteLength":49212,
			"byteOffset":1774808,
			"target":34962
		},
		{
			"buffer":0,
			"byteLength":32808,
			"byteOffset":1824020,
			"target":34962
		},
		{
			"buffer":0,
			"byteLength":8502,
			"byteOffset":1856828,
			"target":34963
		},
		{
			"buffer":0,
			"byteLength":5458592,
			"byteOffset":1865332,
			"target":34962
		},
		{
			"buffer":0,
			"byteLength":8187888,
			"byteOffset":7323924,
			"target":34962
		},
		{
			"buffer":0,
			"byteLength":8187888,
			"byteOffset":15511812,
			"target":34962
		},
		{
			"buffer":0,
			"byteLength":5458592,
			"byteOffset":23699700,
			"target":34962
		},
		{
			"buffer":0,
			"byteLength":10311744,
			"byteOffset":29158292,
			"target":34963
		},
		{
			"buffer":0,
			"byteLength":1297568,
			"byteOffset":39470036,
			"target":34962
		},
		{
			"buffer":0,
			"byteLength":1946352,
			"byteOffset":40767604,
			"target":34962
		},
		{
			"buffer":0,
			"byteLength":1946352,
			"byteOffset":42713956,
			"target":34962
		},
		{
			"buffer":0,
			"byteLength":1297568,
			"byteOffset":44660308,
			"target":34962
		},
		{
			"buffer":0,
			"byteLength":2864832,
			"byteOffset":45957876,
			"target":34963
		},
		{
			"buffer":0,
			"byteLength":11520,
			"byteOffset":48822708,
			"target":34962
		},
		{
			"buffer":0,
			"byteLength":11520,
			"byteOffset":48834228,
			"target":34962
		},
		{
			"buffer":0,
			"byteLength":7680,
			"byteOffset":48845748,
			"target":34962
		},
		{
			"buffer":0,
			"byteLength":1920,
			"byteOffset":48853428,
			"target":34963
		},
		{
			"buffer":0,
			"byteLength":11112,
			"byteOffset":48855348,
			"target":34962
		},
		{
			"buffer":0,
			"byteLength":11112,
			"byteOffset":48866460,
			"target":34962
		},
		{
			"buffer":0,
			"byteLength":7408,
			"byteOffset":48877572,
			"target":34962
		},
		{
			"buffer":0,
			"byteLength":7074,
			"byteOffset":48884980,
			"target":34963
		},
		{
			"buffer":0,
			"byteLength":2580,
			"byteOffset":48892056,
			"target":34962
		},
		{
			"buffer":0,
			"byteLength":2580,
			"byteOffset":48894636,
			"target":34962
		},
		{
			"buffer":0,
			"byteLength":1720,
			"byteOffset":48897216,
			"target":34962
		},
		{
			"buffer":0,
			"byteLength":1896,
			"byteOffset":48898936,
			"target":34963
		},
		{
			"buffer":0,
			"byteLength":11112,
			"byteOffset":48900832,
			"target":34962
		},
		{
			"buffer":0,
			"byteLength":11112,
			"byteOffset":48911944,
			"target":34962
		},
		{
			"buffer":0,
			"byteLength":7408,
			"byteOffset":48923056,
			"target":34962
		},
		{
			"buffer":0,
			"byteLength":7038,
			"byteOffset":48930464,
			"target":34963
		},
		{
			"buffer":0,
			"byteLength":2592,
			"byteOffset":48937504,
			"target":34962
		},
		{
			"buffer":0,
			"byteLength":2592,
			"byteOffset":48940096,
			"target":34962
		},
		{
			"buffer":0,
			"byteLength":1728,
			"byteOffset":48942688,
			"target":34962
		},
		{
			"buffer":0,
			"byteLength":1896,
			"byteOffset":48944416,
			"target":34963
		},
		{
			"buffer":0,
			"byteLength":11064,
			"byteOffset":48946312,
			"target":34962
		},
		{
			"buffer":0,
			"byteLength":11064,
			"byteOffset":48957376,
			"target":34962
		},
		{
			"buffer":0,
			"byteLength":7376,
			"byteOffset":48968440,
			"target":34962
		},
		{
			"buffer":0,
			"byteLength":7044,
			"byteOffset":48975816,
			"target":34963
		},
		{
			"buffer":0,
			"byteLength":2580,
			"byteOffset":48982860,
			"target":34962
		},
		{
			"buffer":0,
			"byteLength":2580,
			"byteOffset":48985440,
			"target":34962
		},
		{
			"buffer":0,
			"byteLength":1720,
			"byteOffset":48988020,
			"target":34962
		},
		{
			"buffer":0,
			"byteLength":1896,
			"byteOffset":48989740,
			"target":34963
		},
		{
			"buffer":0,
			"byteLength":11136,
			"byteOffset":48991636,
			"target":34962
		},
		{
			"buffer":0,
			"byteLength":11136,
			"byteOffset":49002772,
			"target":34962
		},
		{
			"buffer":0,
			"byteLength":7424,
			"byteOffset":49013908,
			"target":34962
		},
		{
			"buffer":0,
			"byteLength":7080,
			"byteOffset":49021332,
			"target":34963
		},
		{
			"buffer":0,
			"byteLength":2580,
			"byteOffset":49028412,
			"target":34962
		},
		{
			"buffer":0,
			"byteLength":2580,
			"byteOffset":49030992,
			"target":34962
		},
		{
			"buffer":0,
			"byteLength":1720,
			"byteOffset":49033572,
			"target":34962
		},
		{
			"buffer":0,
			"byteLength":1896,
			"byteOffset":49035292,
			"target":34963
		},
		{
			"buffer":0,
			"byteLength":3180,
			"byteOffset":49037188,
			"target":34962
		},
		{
			"buffer":0,
			"byteLength":3180,
			"byteOffset":49040368,
			"target":34962
		},
		{
			"buffer":0,
			"byteLength":2120,
			"byteOffset":49043548,
			"target":34962
		},
		{
			"buffer":0,
			"byteLength":1740,
			"byteOffset":49045668,
			"target":34963
		},
		{
			"buffer":0,
			"byteLength":984,
			"byteOffset":49047408,
			"target":34962
		},
		{
			"buffer":0,
			"byteLength":984,
			"byteOffset":49048392,
			"target":34962
		},
		{
			"buffer":0,
			"byteLength":656,
			"byteOffset":49049376,
			"target":34962
		},
		{
			"buffer":0,
			"byteLength":744,
			"byteOffset":49050032,
			"target":34963
		}
	],
	"buffers":[
		{
			"byteLength":49050776,
			"uri":"earth.bin"
		}
	]
}
